# xmcd CD database file
#
# Track frame offsets:
#	150
#	19965
#	40952
#	56555
#	77440
#	96152
#	116635
#	137120
#	153652
#	170290
#	189802
#	205865
#	223330
#	237540
#	254500
#	275925
#	305157
#	323642
#
# Disc length: 4591 seconds
#
# Revision: 1
# Processed by: cddbd v1.5.1PL0 Copyright (c) Steve Scherf et al.
# Submitted via: CDex 1.51
#
DISCID=0e11ed12
DTITLE=UNICORN - THE VERY BEST OF UNICORN
DYEAR=1900
DGENRE=ロック (日本)
TTITLE0=メイビー・ブルー
TTITLE1=ピンク・プリズナー
TTITLE2=ペケペケ
TTITLE3=アイム・ア・ルーザー
TTITLE4=シュガー・ボーイ
TTITLE5=服部
TTITLE6=デーゲーム
TTITLE7=おかしな2人
TTITLE8=大迷惑
TTITLE9=人生は上々だ
TTITLE10=自転車泥棒
TTITLE11=働く男
TTITLE12=フーガ
TTITLE13=スターな男
TTITLE14=ヒゲとボイン
TTITLE15=雪が降る町
TTITLE16=与える男
TTITLE17=すばらしい日々
EXTD=
EXTT0=
EXTT1=
EXTT2=
EXTT3=
EXTT4=
EXTT5=
EXTT6=
EXTT7=
EXTT8=
EXTT9=
EXTT10=
EXTT11=
EXTT12=
EXTT13=
EXTT14=
EXTT15=
EXTT16=
EXTT17=
PLAYORDER=
